<?xml version="1.0" encoding="utf-8"?>
<!-- Svg Vector Icons : http://www.onlinewebfonts.com/icon -->
<!DOCTYPE svg PUBLIC "-//W3C//DTD SVG 1.1//EN" "http://www.w3.org/Graphics/SVG/1.1/DTD/svg11.dtd">
<svg version="1.1" xmlns="http://www.w3.org/2000/svg" xmlns:xlink="http://www.w3.org/1999/xlink" x="0px" y="0px" viewBox="0 0 1000 1000" enable-background="new 0 0 1000 1000" xml:space="preserve">
<metadata> Svg Vector Icons : http://www.onlinewebfonts.com/icon </metadata>
<g><g transform="translate(0.000000,512.000000) scale(0.100000,-0.100000)"><path d="M4176.7,4121.7v-899.9h-239.3H3698l-1.9-492.1v-494l-528.5-568.7l-530.4-570.6h-239.3h-239.3l-379.1-379.1c-419.3-419.3-428.9-434.6-323.6-541.9c49.8-47.9,70.8-55.5,162.7-55.5h107.2V33.8v-86.2H1161H596.2v-162.7v-162.8H759h162.7v-239.3v-239.3H1161h239.3v-1550.9v-1550.9h-76.6h-76.6v-248.9v-248.9H726.4c-549.5-1.9-559.1-1.9-605-90c-36.4-67-26.8-120.6,32.5-180l55.5-55.5H5000h4790.6l55.5,55.5c59.4,59.3,68.9,112.9,32.6,180c-45.9,88.1-55.5,88.1-603.1,90h-522.7v248.9v248.9h-76.6h-76.6v1550.9v1550.9h239.3h239.3v239.3v239.3H9241h162.7v162.8v162.7h-564.8h-564.8v86.2V120h103.4c137.8,0,210.6,55.5,210.6,160.8c0,67-23,93.8-373.4,444.2l-373.4,371.5h-239.3h-239.3l-530.4,570.6l-528.5,568.7v494l-1.9,492.1h-239.3h-239.3v899.9v899.9H5000h-823.3V4121.7z M6369,1688.1c285.3-306.4,520.8-564.8,522.7-574.4c3.8-9.6-794.6-17.2-1891.7-17.2c-1060.7,0-1895.5,7.7-1891.7,17.2c3.8,7.7,237.4,266.1,520.8,574.4l517,557.2h854h854L6369,1688.1z M7944.8,39.6l-5.7-82.3H5000H2060.9l-5.7,82.3l-5.8,80.4H5000h2950.5L7944.8,39.6z M4584.5-1099.7c-135.9-145.5-294.9-440.4-367.6-689.3l-42.1-139.8l-40.2,38.3c-46,42.1-130.2,49.8-189.6,19.1c-19.2-11.5-67-82.3-105.3-157c-181.9-360-191.5-790.8-24.9-1158.4l53.6-120.6h-411.7H3047v-325.5v-325.5h-497.8h-499.7l9.6,90c5.7,51.7,15.3,153.2,21.1,227.8c17.2,197.2,90,505.5,170.4,716.1c363.8,942,1171.8,1631.3,2152.1,1838.1C4636.2-1036.5,4643.9-1036.5,4584.5-1099.7z M5580.1-1088.2c1097.1-222.1,1983.6-1056.9,2263.2-2133c44-174.2,74.7-375.3,93.8-616.5l7.6-120.6h-572.5h-572.5v325.5v325.5h-335.1h-335.1l47.9,97.6c76.6,149.4,124.5,363.8,124.5,553.4c0,394.4-103.4,652.9-409.7,1012.9c-252.7,300.6-247,296.8-354.2,283.4l-93.8-11.5l-42.1,114.9c-24.9,63.2-59.3,136-80.4,160.8l-36.4,47.9h49.8C5363.8-1048,5474.8-1065.2,5580.1-1088.2z M4228.4-3701.7c124.5-95.7,292.9-176.2,453.8-218.3l135.9-36.4h-721.8l-723.7-1.9v162.7v162.8h382.9h382.9L4228.4-3701.7z M6474.3-3795.5v-162.7l-645.3,1.9h-647.2l139.8,36.4c158.9,42.1,337,126.4,463.4,222.1l86.2,63.2l302.5,1.9h300.6V-3795.5z"/></g></g>
</svg>