<?xml version="1.0" encoding="UTF-8" standalone="no"?>
<!-- Created with Inkscape (http://www.inkscape.org/) -->

<svg
   xmlns:dc="http://purl.org/dc/elements/1.1/"
   xmlns:cc="http://creativecommons.org/ns#"
   xmlns:rdf="http://www.w3.org/1999/02/22-rdf-syntax-ns#"
   xmlns:svg="http://www.w3.org/2000/svg"
   xmlns="http://www.w3.org/2000/svg"
   version="1.1"
   width="512"
   height="512"
   id="svg2"
   xml:space="preserve"><metadata
     id="metadata8"><rdf:RDF><cc:Work
         rdf:about=""><dc:format>image/svg+xml</dc:format><dc:type
           rdf:resource="http://purl.org/dc/dcmitype/StillImage" /><dc:title></dc:title></cc:Work></rdf:RDF></metadata><defs
     id="defs6"><clipPath
       id="clipPath18"><path
         d="M 0,600 800,600 800,0 0,0 0,600 z"
         id="path20" /></clipPath><clipPath
       id="clipPath26"><path
         d="m 282.752,47.7822 234.496,0 0,-14.1181 -234.496,0 0,14.1181 z"
         id="path28" /></clipPath><clipPath
       id="clipPath132"><path
         d="m 490.365,342.561 80,0 0,-22.561 -80,0 0,22.561 z"
         id="path134" /></clipPath><clipPath
       id="clipPath148"><path
         d="m 360.365,342.561 80,0 0,-22.561 -80,0 0,22.561 z"
         id="path150" /></clipPath><clipPath
       id="clipPath164"><path
         d="m 230.365,342.561 80,0 0,-22.561 -80,0 0,22.561 z"
         id="path166" /></clipPath><clipPath
       id="clipPath180"><path
         d="m 100.365,342.561 80,0 0,-22.561 -80,0 0,22.561 z"
         id="path182" /></clipPath><clipPath
       id="clipPath196"><path
         d="m 620.365,342.561 80,0 0,-22.561 -80,0 0,22.561 z"
         id="path198" /></clipPath><clipPath
       id="clipPath212"><path
         d="m 490.365,232.561 80,0 0,-22.561 -80,0 0,22.561 z"
         id="path214" /></clipPath><clipPath
       id="clipPath228"><path
         d="m 360.365,232.561 80,0 0,-22.561 -80,0 0,22.561 z"
         id="path230" /></clipPath><clipPath
       id="clipPath244"><path
         d="m 230.365,232.561 80,0 0,-22.561 -80,0 0,22.561 z"
         id="path246" /></clipPath><clipPath
       id="clipPath260"><path
         d="m 100.365,232.561 80,0 0,-22.561 -80,0 0,22.561 z"
         id="path262" /></clipPath><clipPath
       id="clipPath276"><path
         d="m 620.365,232.561 80,0 0,-22.561 -80,0 0,22.561 z"
         id="path278" /></clipPath><clipPath
       id="clipPath292"><path
         d="m 490.365,452.561 80,0 0,-22.561 -80,0 0,22.561 z"
         id="path294" /></clipPath><clipPath
       id="clipPath308"><path
         d="m 360.365,452.561 80,0 0,-22.561 -80,0 0,22.561 z"
         id="path310" /></clipPath><clipPath
       id="clipPath324"><path
         d="m 230.365,452.561 80,0 0,-22.561 -80,0 0,22.561 z"
         id="path326" /></clipPath><clipPath
       id="clipPath340"><path
         d="m 100.365,452.561 80,0 0,-22.561 -80,0 0,22.561 z"
         id="path342" /></clipPath><clipPath
       id="clipPath356"><path
         d="m 620.365,452.561 80,0 0,-22.561 -80,0 0,22.561 z"
         id="path358" /></clipPath><clipPath
       id="clipPath372"><path
         d="m 490.365,122.561 80,0 0,-22.561 -80,0 0,22.561 z"
         id="path374" /></clipPath><clipPath
       id="clipPath388"><path
         d="m 360.365,122.561 80,0 0,-22.561 -80,0 0,22.561 z"
         id="path390" /></clipPath><clipPath
       id="clipPath404"><path
         d="m 230.365,122.561 80,0 0,-22.561 -80,0 0,22.561 z"
         id="path406" /></clipPath><clipPath
       id="clipPath420"><path
         d="m 100.365,122.561 80,0 0,-22.561 -80,0 0,22.561 z"
         id="path422" /></clipPath><clipPath
       id="clipPath436"><path
         d="m 620.365,122.561 80,0 0,-22.561 -80,0 0,22.561 z"
         id="path438" /></clipPath><clipPath
       id="clipPath512"><path
         d="m 372.96,489.958 50.009,0 0,-50.009 -50.009,0 0,50.009 z"
         id="path514" /></clipPath><clipPath
       id="clipPath536"><path
         d="m 240.295,486.032 60.14,0 0,-48.943 -60.14,0 0,48.943 z"
         id="path538" /></clipPath><clipPath
       id="clipPath540"><path
         d="m 254.33,486.032 32.07,0 0,-17.455 -32.07,0 0,17.455 z"
         id="path542" /></clipPath><clipPath
       id="clipPath544"><path
         d="m 240.295,468.577 60.14,0 0,-31.488 -60.14,0 0,31.488 z"
         id="path546" /></clipPath><clipPath
       id="clipPath596"><path
         d="m 240.295,497.23 60.141,0 0,-48.943 -60.141,0 0,48.943 z"
         id="path598" /></clipPath><clipPath
       id="clipPath600"><path
         d="m 240.295,497.23 60.141,0 0,-31.487 -60.141,0 0,31.487 z"
         id="path602" /></clipPath><clipPath
       id="clipPath604"><path
         d="m 254.33,465.743 32.07,0 0,-17.456 -32.07,0 0,17.456 z"
         id="path606" /></clipPath><clipPath
       id="clipPath684"><path
         d="m 102.597,354.847 69.884,0 0,-27.758 -69.884,0 0,27.758 z"
         id="path686" /></clipPath><clipPath
       id="clipPath724"><path
         d="m 244.829,372.032 27.562,0 0,-44.944 -27.562,0 0,44.944 z"
         id="path726" /></clipPath><clipPath
       id="clipPath740"><path
         d="m 249.933,367.403 17.378,0 0,-22.625 -17.378,0 0,22.625 z"
         id="path742" /></clipPath><clipPath
       id="clipPath768"><path
         d="m 274.486,387.646 21.416,0 0,-47.474 -21.416,0 0,47.474 z"
         id="path770" /></clipPath><clipPath
       id="clipPath784"><path
         d="m 275.278,381.136 16.779,0 0,-21.441 -16.779,0 0,21.441 z"
         id="path786" /></clipPath><clipPath
       id="clipPath832"><path
         d="m 502.919,477.471 8.196,0 0,-15.311 -8.196,0 0,15.311 z"
         id="path834" /></clipPath><clipPath
       id="clipPath848"><path
         d="m 505.033,492.143 12.164,0 0,-9.743 -12.164,0 0,9.743 z"
         id="path850" /></clipPath><clipPath
       id="clipPath864"><path
         d="m 507.017,488.484 50.496,0 0,-51.089 -50.496,0 0,51.089 z"
         id="path866" /></clipPath><clipPath
       id="clipPath880"><path
         d="m 518.066,496.422 21.355,0 0,-4.279 -21.355,0 0,4.279 z"
         id="path882" /></clipPath><clipPath
       id="clipPath904"><path
         d="m 517.338,507.424 5.862,0 0,-3.966 -5.862,0 0,3.966 z"
         id="path906" /></clipPath><clipPath
       id="clipPath960"><path
         d="m 525.077,347.096 19.034,0 0,-7.447 -19.034,0 0,7.447 z"
         id="path962" /></clipPath><clipPath
       id="clipPath1000"><path
         d="m 514.955,369.522 29.156,0 0,-31.323 -29.156,0 0,31.323 z"
         id="path1002" /></clipPath><clipPath
       id="clipPath1028"><path
         d="m 544.437,335.938 19.034,0 0,-7.446 -19.034,0 0,7.446 z"
         id="path1030" /></clipPath><clipPath
       id="clipPath1088"><path
         d="m 109.963,251.575 18.125,0 0,-18.22 -18.125,0 0,18.22 z"
         id="path1090" /></clipPath><clipPath
       id="clipPath1104"><path
         d="m 147.108,251.574 18.126,0 0,-18.218 -18.126,0 0,18.218 z"
         id="path1106" /></clipPath><clipPath
       id="clipPath1156"><path
         d="m 366.792,354.271 67.131,0 0,-27.182 -67.131,0 0,27.182 z"
         id="path1158" /></clipPath><clipPath
       id="clipPath1172"><path
         d="m 366.792,378.452 67.131,0 0,-27.181 -67.131,0 0,27.181 z"
         id="path1174" /></clipPath><clipPath
       id="clipPath1192"><path
         d="m 675.988,470.762 11.222,0 0,-14.732 -11.222,0 0,14.732 z"
         id="path1194" /></clipPath><clipPath
       id="clipPath1212"><path
         d="m 665.481,467.24 22.416,0 0,-26.281 -22.416,0 0,26.281 z"
         id="path1214" /></clipPath><clipPath
       id="clipPath1228"><path
         d="m 678.573,480.74 10.442,0 0,-39.777 -10.442,0 0,39.777 z"
         id="path1230" /></clipPath><clipPath
       id="clipPath1244"><path
         d="m 665.481,480.74 15.106,0 0,-15.847 -15.106,0 0,15.847 z"
         id="path1246" /></clipPath><clipPath
       id="clipPath1264"><path
         d="m 647.34,495.902 14.731,0 0,-11.224 -14.731,0 0,11.224 z"
         id="path1266" /></clipPath><clipPath
       id="clipPath1284"><path
         d="m 632.269,496.588 26.28,0 0,-22.416 -26.28,0 0,22.416 z"
         id="path1286" /></clipPath><clipPath
       id="clipPath1300"><path
         d="m 632.272,497.705 39.778,0 0,-10.441 -39.778,0 0,10.441 z"
         id="path1302" /></clipPath><clipPath
       id="clipPath1316"><path
         d="m 656.202,489.277 15.848,0 0,-15.105 -15.848,0 0,15.105 z"
         id="path1318" /></clipPath><clipPath
       id="clipPath1336"><path
         d="m 638.511,463.057 9.158,0 0,-11.123 -9.158,0 0,11.123 z"
         id="path1338" /></clipPath><clipPath
       id="clipPath1356"><path
         d="m 643.241,456.361 11.123,0 0,-9.158 -11.123,0 0,9.158 z"
         id="path1358" /></clipPath><clipPath
       id="clipPath1376"><path
         d="m 677.882,503.375 16.803,0 0,-16.801 -16.803,0 0,16.801 z"
         id="path1378" /></clipPath><clipPath
       id="clipPath1392"><path
         d="m 646.777,499.116 43.647,0 0,-43.647 -43.647,0 0,43.647 z"
         id="path1394" /></clipPath><clipPath
       id="clipPath1412"><path
         d="m 258.956,262.394 26.084,0 0,-26.083 -26.084,0 0,26.083 z"
         id="path1414" /></clipPath><clipPath
       id="clipPath1428"><path
         d="m 242.849,252.914 32.709,0 0,-32.711 -32.709,0 0,32.711 z"
         id="path1430" /></clipPath><clipPath
       id="clipPath1444"><path
         d="m 239.9,262.046 28.541,0 0,-44.752 -28.541,0 0,44.752 z"
         id="path1446" /></clipPath><clipPath
       id="clipPath1460"><path
         d="m 239.937,245.797 44.754,0 0,-28.542 -44.754,0 0,28.542 z"
         id="path1462" /></clipPath><clipPath
       id="clipPath1480"><path
         d="m 260.124,273.885 36.406,0 0,-36.405 -36.406,0 0,36.405 z"
         id="path1482" /></clipPath><clipPath
       id="clipPath1496"><path
         d="m 267.349,276.059 25.216,0 0,-13.463 -25.216,0 0,13.463 z"
         id="path1498" /></clipPath><clipPath
       id="clipPath1520"><path
         d="m 626.985,353.628 66.76,0 0,-26.539 -66.76,0 0,26.539 z"
         id="path1522" /></clipPath><clipPath
       id="clipPath1536"><path
         d="m 626.985,378.167 66.76,0 0,-26.539 -66.76,0 0,26.539 z"
         id="path1538" /></clipPath><clipPath
       id="clipPath1600"><path
         d="m 631.984,347.097 32.333,0 0,-14.008 -32.333,0 0,14.008 z"
         id="path1602" /></clipPath><clipPath
       id="clipPath1604"><path
         d="m 631.984,347.097 32.333,0 0,-2.008 -32.333,0 0,2.008 z"
         id="path1606" /></clipPath><clipPath
       id="clipPath1608"><path
         d="m 640.56,335.097 23.757,0 0,-2.008 -23.757,0 0,2.008 z"
         id="path1610" /></clipPath><clipPath
       id="clipPath1612"><path
         d="m 635.021,343.097 29.296,0 0,-2.008 -29.296,0 0,2.008 z"
         id="path1614" /></clipPath><clipPath
       id="clipPath1616"><path
         d="m 637.854,339.097 26.463,0 0,-2.008 -26.463,0 0,2.008 z"
         id="path1618" /></clipPath><clipPath
       id="clipPath1724"><path
         d="m 516.251,281.048 23.978,0 0,-45.721 -23.978,0 0,45.721 z"
         id="path1726" /></clipPath><clipPath
       id="clipPath1740"><path
         d="m 515.858,279.413 30.701,0 0,-47.271 -30.701,0 0,47.271 z"
         id="path1742" /></clipPath><clipPath
       id="clipPath1764"><path
         d="m 367.93,160.341 53.291,0 0,-53.289 -53.291,0 0,53.289 z"
         id="path1766" /></clipPath><clipPath
       id="clipPath1780"><path
         d="m 378.498,170.907 53.289,0 0,-53.287 -53.289,0 0,53.287 z"
         id="path1782" /></clipPath><clipPath
       id="clipPath1796"><path
         d="m 383.677,152.676 29.878,0 0,-29.876 -29.878,0 0,29.876 z"
         id="path1798" /></clipPath><clipPath
       id="clipPath1820"><path
         d="m 389.325,149.514 21.069,0 0,-21.068 -21.069,0 0,21.068 z"
         id="path1822" /></clipPath><clipPath
       id="clipPath1836"><path
         d="m 395.224,143.616 9.272,0 0,-9.271 -9.272,0 0,9.271 z"
         id="path1838" /></clipPath><clipPath
       id="clipPath1852"><path
         d="m 394.311,148.358 11.097,0 0,-5.923 -11.097,0 0,5.923 z"
         id="path1854" /></clipPath><clipPath
       id="clipPath1868"><path
         d="m 396.113,135.382 7.491,0 0,-5.779 -7.491,0 0,5.779 z"
         id="path1870" /></clipPath><clipPath
       id="clipPath1888"><path
         d="m 392.457,165.868 5.228,0 0,-5.228 -5.228,0 0,5.228 z"
         id="path1890" /></clipPath><clipPath
       id="clipPath1904"><path
         d="m 391.835,165.247 5.228,0 0,-5.228 -5.228,0 0,5.228 z"
         id="path1906" /></clipPath><clipPath
       id="clipPath1920"><path
         d="m 391.213,164.626 5.229,0 0,-5.229 -5.229,0 0,5.229 z"
         id="path1922" /></clipPath><clipPath
       id="clipPath1936"><path
         d="m 390.592,164.005 5.228,0 0,-5.229 -5.228,0 0,5.229 z"
         id="path1938" /></clipPath><clipPath
       id="clipPath1952"><path
         d="m 389.971,163.382 5.228,0 0,-5.229 -5.228,0 0,5.229 z"
         id="path1954" /></clipPath><clipPath
       id="clipPath1968"><path
         d="m 389.35,162.761 5.228,0 0,-5.229 -5.228,0 0,5.229 z"
         id="path1970" /></clipPath><clipPath
       id="clipPath1996"><path
         d="m 505.882,157.414 43.832,0 0,-45.294 -43.832,0 0,45.294 z"
         id="path1998" /></clipPath><clipPath
       id="clipPath2028"><path
         d="m 503.506,147.077 8.731,0 0,-27.468 -8.731,0 0,27.468 z"
         id="path2030" /></clipPath><clipPath
       id="clipPath2044"><path
         d="m 529.838,166.99 1.414,0 0,-1.414 -1.414,0 0,1.414 z"
         id="path2046" /></clipPath><clipPath
       id="clipPath2060"><path
         d="m 530.026,164.415 0.661,0 0,-0.659 -0.661,0 0,0.659 z"
         id="path2062" /></clipPath><clipPath
       id="clipPath2076"><path
         d="m 528.016,165.326 0.66,0 0,-0.661 -0.66,0 0,0.661 z"
         id="path2078" /></clipPath><clipPath
       id="clipPath2092"><path
         d="m 519.022,166.355 1.414,0 0,-1.414 -1.414,0 0,1.414 z"
         id="path2094" /></clipPath><clipPath
       id="clipPath2108"><path
         d="m 521.557,165.519 0.66,0 0,-0.661 -0.66,0 0,0.661 z"
         id="path2110" /></clipPath><clipPath
       id="clipPath2124"><path
         d="m 520.404,163.637 0.66,0 0,-0.66 -0.66,0 0,0.66 z"
         id="path2126" /></clipPath><clipPath
       id="clipPath2140"><path
         d="m 529.18,161.123 1.414,0 0,-1.414 -1.414,0 0,1.414 z"
         id="path2142" /></clipPath><clipPath
       id="clipPath2156"><path
         d="m 528.902,162.854 0.661,0 0,-0.661 -0.661,0 0,0.661 z"
         id="path2158" /></clipPath><clipPath
       id="clipPath2172"><path
         d="m 531.108,162.767 0.661,0 0,-0.659 -0.661,0 0,0.659 z"
         id="path2174" /></clipPath><clipPath
       id="clipPath2188"><path
         d="m 511.959,156.345 1.414,0 0,-1.413 -1.414,0 0,1.413 z"
         id="path2190" /></clipPath><clipPath
       id="clipPath2204"><path
         d="m 514.23,157.1 0.66,0 0,-0.66 -0.66,0 0,0.66 z"
         id="path2206" /></clipPath><clipPath
       id="clipPath2220"><path
         d="m 514.665,154.937 0.66,0 0,-0.661 -0.66,0 0,0.661 z"
         id="path2222" /></clipPath><clipPath
       id="clipPath2236"><path
         d="m 517.105,159.239 1.415,0 0,-1.414 -1.415,0 0,1.414 z"
         id="path2238" /></clipPath><clipPath
       id="clipPath2252"><path
         d="m 516.154,157.1 0.66,0 0,-0.661 -0.66,0 0,0.661 z"
         id="path2254" /></clipPath><clipPath
       id="clipPath2268"><path
         d="m 514.936,158.938 0.659,0 0,-0.659 -0.659,0 0,0.659 z"
         id="path2270" /></clipPath><clipPath
       id="clipPath2284"><path
         d="m 528.166,153.106 1.414,0 0,-1.413 -1.414,0 0,1.413 z"
         id="path2286" /></clipPath><clipPath
       id="clipPath2300"><path
         d="m 526.391,153.215 0.658,0 0,-0.661 -0.658,0 0,0.661 z"
         id="path2302" /></clipPath><clipPath
       id="clipPath2316"><path
         d="m 527.564,155.084 0.659,0 0,-0.661 -0.659,0 0,0.661 z"
         id="path2318" /></clipPath><clipPath
       id="clipPath2332"><path
         d="m 538.445,155.356 1.413,0 0,-1.414 -1.413,0 0,1.414 z"
         id="path2334" /></clipPath><clipPath
       id="clipPath2348"><path
         d="m 539.601,157.045 0.659,0 0,-0.66 -0.659,0 0,0.66 z"
         id="path2350" /></clipPath><clipPath
       id="clipPath2364"><path
         d="m 541.289,155.624 0.659,0 0,-0.66 -0.659,0 0,0.66 z"
         id="path2366" /></clipPath><clipPath
       id="clipPath2380"><path
         d="m 506.111,169.753 19.825,0 0,-19.125 -19.825,0 0,19.125 z"
         id="path2382" /></clipPath><clipPath
       id="clipPath2400"><path
         d="m 548.755,122.654 1.179,0 0,-1.177 -1.179,0 0,1.177 z"
         id="path2402" /></clipPath><clipPath
       id="clipPath2416"><path
         d="m 548.912,120.51 0.549,0 0,-0.549 -0.549,0 0,0.549 z"
         id="path2418" /></clipPath><clipPath
       id="clipPath2432"><path
         d="m 547.237,121.268 0.549,0 0,-0.549 -0.549,0 0,0.549 z"
         id="path2434" /></clipPath><clipPath
       id="clipPath2448"><path
         d="m 539.748,122.124 1.177,0 0,-1.176 -1.177,0 0,1.176 z"
         id="path2450" /></clipPath><clipPath
       id="clipPath2464"><path
         d="m 541.86,121.429 0.549,0 0,-0.549 -0.549,0 0,0.549 z"
         id="path2466" /></clipPath><clipPath
       id="clipPath2480"><path
         d="m 540.899,119.861 0.55,0 0,-0.549 -0.55,0 0,0.549 z"
         id="path2482" /></clipPath><clipPath
       id="clipPath2496"><path
         d="m 548.207,117.768 1.177,0 0,-1.178 -1.177,0 0,1.178 z"
         id="path2498" /></clipPath><clipPath
       id="clipPath2512"><path
         d="m 547.976,119.208 0.548,0 0,-0.548 -0.548,0 0,0.548 z"
         id="path2514" /></clipPath><clipPath
       id="clipPath2528"><path
         d="m 549.812,119.138 0.55,0 0,-0.549 -0.55,0 0,0.549 z"
         id="path2530" /></clipPath><clipPath
       id="clipPath2544"><path
         d="m 533.866,113.79 1.178,0 0,-1.178 -1.178,0 0,1.178 z"
         id="path2546" /></clipPath><clipPath
       id="clipPath2560"><path
         d="m 535.758,114.418 0.55,0 0,-0.549 -0.55,0 0,0.549 z"
         id="path2562" /></clipPath><clipPath
       id="clipPath2576"><path
         d="m 536.121,112.617 0.548,0 0,-0.551 -0.548,0 0,0.551 z"
         id="path2578" /></clipPath><clipPath
       id="clipPath2592"><path
         d="m 538.152,116.199 1.177,0 0,-1.178 -1.177,0 0,1.178 z"
         id="path2594" /></clipPath><clipPath
       id="clipPath2608"><path
         d="m 537.36,114.417 0.549,0 0,-0.548 -0.549,0 0,0.548 z"
         id="path2610" /></clipPath><clipPath
       id="clipPath2624"><path
         d="m 536.346,115.95 0.548,0 0,-0.55 -0.548,0 0,0.55 z"
         id="path2626" /></clipPath><clipPath
       id="clipPath2640"><path
         d="m 547.362,111.093 1.178,0 0,-1.176 -1.178,0 0,1.176 z"
         id="path2642" /></clipPath><clipPath
       id="clipPath2656"><path
         d="m 545.883,111.182 0.549,0 0,-0.549 -0.549,0 0,0.549 z"
         id="path2658" /></clipPath><clipPath
       id="clipPath2672"><path
         d="m 546.86,112.738 0.551,0 0,-0.548 -0.551,0 0,0.548 z"
         id="path2674" /></clipPath><clipPath
       id="clipPath2688"><path
         d="m 555.923,112.967 1.175,0 0,-1.178 -1.175,0 0,1.178 z"
         id="path2690" /></clipPath><clipPath
       id="clipPath2704"><path
         d="m 556.883,114.373 0.551,0 0,-0.55 -0.551,0 0,0.55 z"
         id="path2706" /></clipPath><clipPath
       id="clipPath2720"><path
         d="m 558.289,113.188 0.55,0 0,-0.549 -0.55,0 0,0.549 z"
         id="path2722" /></clipPath><clipPath
       id="clipPath2736"><path
         d="m 528.238,124.955 17.268,0 0,-16.685 -17.268,0 0,16.685 z"
         id="path2738" /></clipPath><clipPath
       id="clipPath2756"><path
         d="m 235.88,126.035 68.971,0 0,-12.824 -68.971,0 0,12.824 z"
         id="path2758" /></clipPath><clipPath
       id="clipPath2780"><path
         d="m 251.762,134.281 36.717,0 0,-5.537 -36.717,0 0,5.537 z"
         id="path2782" /></clipPath><clipPath
       id="clipPath2796"><path
         d="m 269.921,177.375 18.534,0 0,-48.541 -18.534,0 0,48.541 z"
         id="path2798" /></clipPath><clipPath
       id="clipPath2820"><path
         d="m 650.62,170.966 41.68,0 0,-41.678 -41.68,0 0,41.678 z"
         id="path2822" /></clipPath><clipPath
       id="clipPath2836"><path
         d="m 655.028,146.992 11.3,0 0,-11.511 -11.3,0 0,11.511 z"
         id="path2838" /></clipPath><clipPath
       id="clipPath2856"><path
         d="m 661.048,145.883 6.28,0 0,-11.307 -6.28,0 0,11.307 z"
         id="path2858" /></clipPath></defs><g
     transform="matrix(1.25,0,0,-1.25,0,512)"
     id="g10"><g
       transform="translate(364.71173,26.563649)"
       id="g28799"><path
         d="m 700.3652,221.2812 c 0,-6.23 -17.908,-11.281 -40,-11.281 -22.092,0 -40,5.051 -40,11.281 0,6.23 17.908,11.279 40,11.279 22.092,0 40,-5.049 40,-11.279"
         id="path286"
         style="opacity:0.39999402;fill:#c7a687;fill-opacity:1;fill-rule:nonzero;stroke:none" /><path
         d="m 663.125,251.5205 c 0.023,0.113 23.818,21.194 23.818,25.479 l -26.578,0 -26.578,0 c 0,-4.285 23.797,-25.366 23.818,-25.479 0.309,-1.557 0.502,-3.062 0.532,-4.658 0.08,-4.285 0,-17.727 -0.114,-20.027 -0.076,-1.521 -0.328,-3.734 -1.863,-4.615 -1.703,-0.974 -3.308,-1.555 -5.099,-2.278 -1.559,-0.628 -2.868,-1.449 -0.479,-2.174 1.572,-0.473 5.783,-0.734 9.783,-0.748 4,0.014 8.211,0.275 9.783,0.748 2.391,0.725 1.081,1.546 -0.474,2.174 -1.795,0.723 -3.397,1.304 -5.102,2.278 -1.537,0.881 -1.789,3.094 -1.863,4.615 -0.113,2.3 -0.195,15.742 -0.113,20.027 0.029,1.596 0.222,3.101 0.529,4.658"
         id="path934"
         style="fill:#f0f4f5;fill-opacity:1;fill-rule:nonzero;stroke:none" /><path
         d="m 662.4375,254.0215 c 0.016,0.082 19.486,15.891 19.486,19.103 l -21.558,0 -21.559,0 c 0,-3.212 19.471,-19.021 19.488,-19.103 0.231,-1.168 3.911,-1.168 4.143,0"
         id="path938"
         style="fill:#f5d266;fill-opacity:1;fill-rule:nonzero;stroke:none" /><path
         d="m 669.7383,265.4834 c 0,-3.229 -2.619,-5.847 -5.85,-5.847 -3.23,0 -5.849,2.618 -5.849,5.847 0,3.229 2.619,5.849 5.849,5.849 3.231,0 5.85,-2.62 5.85,-5.849"
         id="path942"
         style="fill:#93a754;fill-opacity:1;fill-rule:nonzero;stroke:none" /></g><g
       transform="translate(364.71173,26.563649)"
       id="g28676"><path
         d="m 700.3652,441.2812 c 0,-6.23 -17.908,-11.281 -40,-11.281 -22.092,0 -40,5.051 -40,11.281 0,6.23 17.908,11.279 40,11.279 22.092,0 40,-5.049 40,-11.279"
         id="path366"
         style="opacity:0.39999402;fill:#c7a687;fill-opacity:1;fill-rule:nonzero;stroke:none" /><path
         d="m 677.251,463.3809 c -1.684,-1.682 -1.684,-4.408 0,-6.09 1.68,-1.681 4.406,-1.681 6.088,0 l 8.072,8.072 c 1.682,1.682 1.682,4.409 0,6.09 -1.681,1.682 -4.408,1.682 -6.09,0 l -8.07,-8.072 z"
         id="path1186"
         style="fill:#ccd0cf;fill-opacity:1;fill-rule:nonzero;stroke:none" /><path
         d="m 684.6299,470.7617 -7.379,-7.381 c -1.684,-1.682 -1.684,-4.408 0,-6.09 1.68,-1.681 4.406,-1.681 6.088,0 l 3.871,3.871 c -0.842,3.131 -1.742,6.487 -2.58,9.6"
         id="path1202"
         style="opacity:0.60000598;fill:#ccd0cf;fill-opacity:1;fill-rule:nonzero;stroke:none" /><path
         d="m 679.6904,480.7402 c 0.887,-3.291 8.529,-31.674 9.045,-33.664 0.547,-2.115 0.443,-3.223 -1.715,-5.145 -2.158,-1.921 -2.898,-0.738 -4.391,1.317 -1.044,1.437 -15.472,21.01 -17.148,23.281 l 14.209,14.211 z"
         id="path1206"
         style="fill:#f0f4f5;fill-opacity:1;fill-rule:nonzero;stroke:none" /><path
         d="m 687.7295,442.6426 c 0.061,0.051 0.111,0.102 0.168,0.152 -0.246,-0.271 -0.533,-0.556 -0.877,-0.863 -2.158,-1.922 -2.898,-0.738 -4.391,1.316 -1.045,1.438 -15.472,21.01 -17.148,23.282 l 0.709,0.711 c 1.676,-2.274 16.103,-21.846 17.148,-23.284 1.495,-2.054 2.233,-3.236 4.391,-1.314"
         id="path1222"
         style="opacity:0.60000598;fill:#ccd0cf;fill-opacity:1;fill-rule:nonzero;stroke:none" /><path
         d="m 685.6025,441.9316 c 2.158,1.922 2.262,3.031 1.715,5.145 -0.479,1.845 -7.07,26.332 -8.744,32.546 l 1.117,1.118 c 0.887,-3.291 8.529,-31.674 9.045,-33.664 0.547,-2.116 0.443,-3.223 -1.715,-5.145 -1.129,-1.004 -1.869,-1.156 -2.531,-0.781 0.328,0.156 0.693,0.408 1.113,0.781"
         id="path1238"
         style="fill:#ccd0cf;fill-opacity:1;fill-rule:nonzero;stroke:none" /><path
         d="m 680.5869,477.4199 c -0.436,1.611 -0.752,2.791 -0.896,3.32 l -14.209,-14.211 c 0.214,-0.289 0.634,-0.859 1.207,-1.636 4.765,4.298 9.73,8.793 13.898,12.527"
         id="path1254"
         style="opacity:0.60000598;fill:#ccd0cf;fill-opacity:1;fill-rule:nonzero;stroke:none" /><path
         d="m 654.6904,485.9395 c -1.682,-1.682 -4.408,-1.682 -6.09,0 -1.681,1.682 -1.681,4.408 0,6.09 l 8.07,8.072 c 1.684,1.682 4.411,1.682 6.092,0 1.682,-1.682 1.682,-4.408 0,-6.09 l -8.072,-8.072 z"
         id="path1258"
         style="fill:#ccd0cf;fill-opacity:1;fill-rule:nonzero;stroke:none" /><path
         d="m 652.4717,495.9023 -3.871,-3.873 c -1.682,-1.682 -1.682,-4.408 0,-6.09 1.682,-1.682 4.408,-1.682 6.09,0 l 7.381,7.381 c -3.114,0.838 -6.469,1.74 -9.6,2.582"
         id="path1274"
         style="opacity:0.60000598;fill:#ccd0cf;fill-opacity:1;fill-rule:nonzero;stroke:none" /><path
         d="m 672.0498,488.3828 c -3.291,0.887 -31.673,8.527 -33.664,9.043 -2.114,0.547 -3.223,0.443 -5.145,-1.715 -1.921,-2.158 -0.739,-2.896 1.317,-4.39 1.438,-1.045 21.01,-15.473 23.282,-17.149 l 14.21,14.211 z"
         id="path1278"
         style="fill:#f0f4f5;fill-opacity:1;fill-rule:nonzero;stroke:none" /><path
         d="m 633.9502,496.4219 c 0.053,0.059 0.104,0.109 0.154,0.166 -0.272,-0.246 -0.556,-0.531 -0.863,-0.877 -1.922,-2.158 -0.739,-2.896 1.316,-4.391 1.439,-1.044 21.01,-15.472 23.283,-17.148 l 0.709,0.709 c -2.271,1.676 -21.843,16.104 -23.283,17.148 -2.054,1.495 -3.238,2.235 -1.316,4.393"
         id="path1294"
         style="opacity:0.60000598;fill:#ccd0cf;fill-opacity:1;fill-rule:nonzero;stroke:none" /><path
         d="m 633.2412,494.293 c 1.922,2.158 3.03,2.262 5.145,1.715 1.843,-0.477 26.332,-7.07 32.544,-8.744 l 1.12,1.119 c -3.291,0.887 -31.673,8.527 -33.664,9.043 -2.115,0.547 -3.223,0.443 -5.145,-1.715 -1.005,-1.127 -1.155,-1.867 -0.781,-2.531 0.154,0.328 0.408,0.693 0.781,1.113"
         id="path1310"
         style="fill:#ccd0cf;fill-opacity:1;fill-rule:nonzero;stroke:none" /><path
         d="m 657.8398,474.1719 14.21,14.211 c -0.529,0.143 -1.709,0.461 -3.322,0.894 -3.733,-4.166 -8.227,-9.13 -12.526,-13.898 0.778,-0.572 1.348,-0.992 1.638,-1.207"
         id="path1326"
         style="opacity:0.60000598;fill:#ccd0cf;fill-opacity:1;fill-rule:nonzero;stroke:none" /><path
         d="m 647.6689,462.7168 c 0,0 -13.201,1.818 -15.314,2.07 -2.114,0.25 -3.619,0.793 -6.28,-1.511 -0.809,-0.7 15.334,-11.342 15.334,-11.342 l 6.26,10.783 z"
         id="path1330"
         style="fill:#ccd0cf;fill-opacity:1;fill-rule:nonzero;stroke:none" /><path
         d="m 647.6689,462.7168 c 0,0 -0.992,0.137 -2.473,0.34 -2.472,-2.826 -4.199,-4.875 -4.644,-5.598 -0.719,-1.166 -1.436,-2.402 -2.041,-3.592 1.709,-1.15 2.898,-1.933 2.898,-1.933 l 6.26,10.783 z"
         id="path1346"
         style="opacity:0.60000598;fill:#ccd0cf;fill-opacity:1;fill-rule:nonzero;stroke:none" /><path
         d="m 654.0244,456.3613 c 0,0 1.82,-13.203 2.07,-15.316 0.252,-2.114 0.795,-3.618 -1.509,-6.28 -0.7,-0.808 -11.344,15.334 -11.344,15.334 l 10.783,6.262 z"
         id="path1350"
         style="fill:#ccd0cf;fill-opacity:1;fill-rule:nonzero;stroke:none" /><path
         d="m 645.1768,447.2031 c 1.187,0.605 2.426,1.322 3.592,2.041 0.721,0.445 2.771,2.17 5.596,4.645 -0.202,1.478 -0.34,2.472 -0.34,2.472 l -10.784,-6.262 c 0,0 0.784,-1.187 1.936,-2.896"
         id="path1366"
         style="opacity:0.60000598;fill:#ccd0cf;fill-opacity:1;fill-rule:nonzero;stroke:none" /><path
         d="m 694.2744,502.9648 c -0.932,0.932 -10.932,0.746 -16.352,-5.668 -6.705,-7.939 -33.285,-36.668 -35.242,-39.838 -2.301,-3.73 -4.567,-8.191 -3.34,-9.428 1.235,-1.226 5.699,1.041 9.429,3.342 3.169,1.955 31.898,28.535 39.837,35.242 6.414,5.418 6.6,15.418 5.668,16.35"
         id="path1370"
         style="fill:#f0f4f5;fill-opacity:1;fill-rule:nonzero;stroke:none" /><path
         d="m 677.8818,497.2461 c 5.578,4.715 13.779,4.785 14.619,3.945 0.838,-0.84 0.77,-9.039 -3.943,-14.617 0.015,0.014 0.031,0.027 0.049,0.041 6.414,5.418 6.599,15.418 5.668,16.35 -0.932,0.931 -10.932,0.746 -16.352,-5.668 -0.012,-0.016 -0.027,-0.033 -0.041,-0.051"
         id="path1386"
         style="fill:#f0f4f5;fill-opacity:1;fill-rule:nonzero;stroke:none" /><path
         d="m 690.1748,498.8672 c -0.562,0.564 -6.617,0.451 -9.896,-3.432 -4.061,-4.806 -30.085,-32.131 -31.27,-34.05 -1.393,-2.258 -2.766,-4.959 -2.023,-5.707 0.748,-0.743 3.451,0.63 5.71,2.023 1.916,1.184 29.243,27.207 34.049,31.268 3.883,3.279 3.994,9.334 3.43,9.898"
         id="path1402"
         style="fill:#f0f4f5;fill-opacity:1;fill-rule:nonzero;stroke:none" /></g><g
       transform="translate(364.71173,26.563649)"
       id="g28764"><path
         d="m 700.3652,331.2812 c 0,-6.23 -17.908,-11.281 -40,-11.281 -22.092,0 -40,5.051 -40,11.281 0,6.23 17.908,11.279 40,11.279 22.092,0 40,-5.049 40,-11.279"
         id="path206"
         style="opacity:0.39999402;fill:#c7a687;fill-opacity:1;fill-rule:nonzero;stroke:none" /><path
         d="m 641.0566,367.7158 c -4.052,-4.053 -8.471,-6.201 -9.87,-4.803 -1.399,1.399 0.752,5.817 4.804,9.869 4.051,4.053 43.952,22.299 45.224,20.159 1.273,-2.141 -36.106,-21.172 -40.158,-25.225"
         id="path1510"
         style="fill:#f0f4f5;fill-opacity:1;fill-rule:nonzero;stroke:none" /><path
         d="m 690.6387,373.7275 c -4.943,4.275 -15.729,4.357 -30.273,4.439 -14.546,-0.082 -25.33,-0.164 -30.274,-4.439 -2.586,-2.234 -3.12,-11.613 -3.106,-21.1 -0.014,-9.486 0.52,-18.867 3.106,-21.103 4.944,-4.274 15.728,-4.356 30.274,-4.436 14.544,0.08 25.33,0.162 30.273,4.436 2.586,2.236 3.122,11.617 3.106,21.103 0.016,9.487 -0.52,18.866 -3.106,21.1"
         id="path1514"
         style="fill:#709ecb;fill-opacity:1;fill-rule:nonzero;stroke:none" /><path
         d="m 690.6387,333.5244 c -4.943,-4.273 -15.729,-4.355 -30.273,-4.436 -14.546,0.081 -25.33,0.163 -30.274,4.436 -2.495,2.156 -3.078,10.967 -3.104,20.104 0,-0.334 -0.002,-0.667 -0.002,-1 -0.014,-9.487 0.52,-18.868 3.106,-21.104 4.944,-4.273 15.728,-4.355 30.274,-4.436 14.544,0.081 25.33,0.163 30.273,4.436 2.586,2.236 3.122,11.617 3.106,21.104 0,0.333 -0.002,0.666 -0.002,1 -0.024,-9.137 -0.609,-17.948 -3.104,-20.104"
         id="path1530"
         style="opacity:0.5;fill:#709ecb;fill-opacity:1;fill-rule:nonzero;stroke:none" /><path
         d="m 630.0918,371.7275 c 4.944,4.275 15.728,4.357 30.273,4.439 14.545,-0.082 25.331,-0.164 30.274,-4.439 2.495,-2.156 3.08,-10.963 3.104,-20.1 0,0.332 0.002,0.666 0.002,1 0.016,9.487 -0.52,18.866 -3.106,21.1 -4.943,4.275 -15.729,4.357 -30.274,4.439 -14.545,-0.082 -25.329,-0.164 -30.273,-4.439 -2.586,-2.234 -3.12,-11.613 -3.106,-21.1 0,-0.334 0.002,-0.668 0.002,-1 0.026,9.137 0.609,17.944 3.104,20.1"
         id="path1546"
         style="opacity:0.5;fill:#709ecb;fill-opacity:1;fill-rule:nonzero;stroke:none" /><path
         d="m 686.415,369.8799 c -4.254,1.66 -13.534,2.691 -26.05,2.723 -12.516,-0.032 -21.795,-1.063 -26.05,-2.723 -2.224,-0.867 -2.683,-4.51 -2.671,-8.193 -0.012,-3.684 0.447,-7.325 2.671,-8.194 4.255,-1.658 13.534,-2.691 26.05,-2.722 12.516,0.031 21.796,1.064 26.05,2.722 2.225,0.869 2.686,4.51 2.672,8.194 0.014,3.683 -0.447,7.326 -2.672,8.193"
         id="path1550"
         style="fill:#f0f4f5;fill-opacity:1;fill-rule:nonzero;stroke:none" /><path
         d="m 636.3154,366.8799 c 4.255,1.66 11.533,2.691 24.05,2.723 12.515,-0.032 19.796,-1.063 24.05,-2.723 2.022,-0.789 2.224,1.133 0,2 -4.254,1.66 -11.535,2.691 -24.05,2.723 -12.517,-0.032 -19.795,-1.063 -24.05,-2.723 -2.225,-0.867 -2.022,-2.789 0,-2"
         id="path1554"
         style="fill:#ffffff;fill-opacity:1;fill-rule:nonzero;stroke:none" /><path
         d="m 686.0088,361.5986 c 0,-0.555 -11.479,-1.004 -25.645,-1.004 -14.16,0 -25.642,0.449 -25.642,1.004 0,0.555 11.482,1.004 25.642,1.004 14.166,0 25.645,-0.449 25.645,-1.004"
         id="path1558"
         style="fill:#f5d266;fill-opacity:1;fill-rule:nonzero;stroke:none" /><path
         d="m 660.3643,358.3018 c -0.329,0 -0.597,1.477 -0.597,3.297 0,1.822 0.268,3.299 0.597,3.299 0.33,0 0.598,-1.477 0.598,-3.299 0,-1.82 -0.268,-3.297 -0.598,-3.297"
         id="path1562"
         style="fill:#f5d266;fill-opacity:1;fill-rule:nonzero;stroke:none" /><path
         d="m 638.3643,358.3018 c -0.329,0 -0.597,1.477 -0.597,3.297 0,1.822 0.268,3.299 0.597,3.299 0.33,0 0.598,-1.477 0.598,-3.299 0,-1.82 -0.268,-3.297 -0.598,-3.297"
         id="path1566"
         style="fill:#f5d266;fill-opacity:1;fill-rule:nonzero;stroke:none" /><path
         d="m 643.8643,358.3018 c -0.329,0 -0.597,1.477 -0.597,3.297 0,1.822 0.268,3.299 0.597,3.299 0.33,0 0.598,-1.477 0.598,-3.299 0,-1.82 -0.268,-3.297 -0.598,-3.297"
         id="path1570"
         style="fill:#f5d266;fill-opacity:1;fill-rule:nonzero;stroke:none" /><path
         d="m 649.3643,358.3018 c -0.329,0 -0.597,1.477 -0.597,3.297 0,1.822 0.268,3.299 0.597,3.299 0.33,0 0.598,-1.477 0.598,-3.299 0,-1.82 -0.268,-3.297 -0.598,-3.297"
         id="path1574"
         style="fill:#f5d266;fill-opacity:1;fill-rule:nonzero;stroke:none" /><path
         d="m 654.8643,358.3018 c -0.329,0 -0.597,1.477 -0.597,3.297 0,1.822 0.268,3.299 0.597,3.299 0.33,0 0.598,-1.477 0.598,-3.299 0,-1.82 -0.268,-3.297 -0.598,-3.297"
         id="path1578"
         style="fill:#f5d266;fill-opacity:1;fill-rule:nonzero;stroke:none" /><path
         d="m 665.8643,358.3018 c -0.329,0 -0.597,1.477 -0.597,3.297 0,1.822 0.268,3.299 0.597,3.299 0.33,0 0.598,-1.477 0.598,-3.299 0,-1.82 -0.268,-3.297 -0.598,-3.297"
         id="path1582"
         style="fill:#f5d266;fill-opacity:1;fill-rule:nonzero;stroke:none" /><path
         d="m 671.3643,358.3018 c -0.329,0 -0.597,1.477 -0.597,3.297 0,1.822 0.268,3.299 0.597,3.299 0.33,0 0.598,-1.477 0.598,-3.299 0,-1.82 -0.268,-3.297 -0.598,-3.297"
         id="path1586"
         style="fill:#f5d266;fill-opacity:1;fill-rule:nonzero;stroke:none" /><path
         d="m 676.8652,358.3018 c -0.33,0 -0.598,1.477 -0.598,3.297 0,1.822 0.268,3.299 0.598,3.299 0.33,0 0.597,-1.477 0.597,-3.299 0,-1.82 -0.267,-3.297 -0.597,-3.297"
         id="path1590"
         style="fill:#f5d266;fill-opacity:1;fill-rule:nonzero;stroke:none" /><path
         d="m 682.3643,358.3018 c -0.329,0 -0.597,1.477 -0.597,3.297 0,1.822 0.268,3.299 0.597,3.299 0.33,0 0.598,-1.477 0.598,-3.299 0,-1.82 -0.268,-3.297 -0.598,-3.297"
         id="path1594"
         style="fill:#f5d266;fill-opacity:1;fill-rule:nonzero;stroke:none" /><g
         clip-path="url(#clipPath1604)"
         id="g1630"
         style="opacity:0.5"><g
           transform="translate(664.3174,346.0928)"
           id="g1632"><path
             d="m 0,0 c 0,-0.555 -7.237,-1.004 -16.167,-1.004 -8.928,0 -16.166,0.449 -16.166,1.004 0,0.555 7.238,1.004 16.166,1.004 C -7.237,1.004 0,0.555 0,0"
             id="path1634"
             style="fill:#709ecb;fill-opacity:1;fill-rule:nonzero;stroke:none" /></g></g><g
         clip-path="url(#clipPath1608)"
         id="g1642"
         style="opacity:0.5"><g
           transform="translate(664.3174,334.0928)"
           id="g1644"><path
             d="m 0,0 c 0,-0.555 -5.318,-1.004 -11.879,-1.004 -6.56,0 -11.879,0.449 -11.879,1.004 0,0.555 5.319,1.004 11.879,1.004 C -5.318,1.004 0,0.555 0,0"
             id="path1646"
             style="fill:#709ecb;fill-opacity:1;fill-rule:nonzero;stroke:none" /></g></g><g
         clip-path="url(#clipPath1612)"
         id="g1654"
         style="opacity:0.5"><g
           transform="translate(664.3174,342.0928)"
           id="g1656"><path
             d="m 0,0 c 0,-0.555 -6.557,-1.004 -14.648,-1.004 -8.089,0 -14.648,0.449 -14.648,1.004 0,0.555 6.559,1.004 14.648,1.004 C -6.557,1.004 0,0.555 0,0"
             id="path1658"
             style="fill:#709ecb;fill-opacity:1;fill-rule:nonzero;stroke:none" /></g></g><g
         clip-path="url(#clipPath1616)"
         id="g1666"
         style="opacity:0.5"><g
           transform="translate(664.3174,338.0928)"
           id="g1668"><path
             d="m 0,0 c 0,-0.555 -5.924,-1.004 -13.232,-1.004 -7.307,0 -13.231,0.449 -13.231,1.004 0,0.555 5.924,1.004 13.231,1.004 C -5.924,1.004 0,0.555 0,0"
             id="path1670"
             style="fill:#709ecb;fill-opacity:1;fill-rule:nonzero;stroke:none" /></g></g><path
         d="m 686.3545,340.3584 c 0,-4.281 -3.47,-7.75 -7.75,-7.75 -4.28,0 -7.75,3.469 -7.75,7.75 0,4.279 3.47,7.75 7.75,7.75 4.28,0 7.75,-3.471 7.75,-7.75"
         id="path1674"
         style="fill:#f0f4f5;fill-opacity:1;fill-rule:nonzero;stroke:none" /><path
         d="m 682.6465,340.3584 c 0,-2.232 -1.81,-4.043 -4.042,-4.043 -2.232,0 -4.042,1.811 -4.042,4.043 0,2.232 1.81,4.041 4.042,4.041 2.232,0 4.042,-1.809 4.042,-4.041"
         id="path1678"
         style="fill:#e96565;fill-opacity:1;fill-rule:nonzero;stroke:none" /><path
         d="m 683.7197,392.9521 c 0,-1.381 -1.119,-2.5 -2.5,-2.5 -1.381,0 -2.5,1.119 -2.5,2.5 0,1.381 1.119,2.5 2.5,2.5 1.381,0 2.5,-1.119 2.5,-2.5"
         id="path1682"
         style="fill:#f0f4f5;fill-opacity:1;fill-rule:nonzero;stroke:none" /><path
         d="m 668.6055,357.5713 c -0.269,0 -1.294,-5.826 -1.337,-6.67 0.915,0.033 1.799,0.074 2.665,0.119 -0.118,1.194 -1.071,6.551 -1.328,6.551"
         id="path1686"
         style="fill:#e96565;fill-opacity:1;fill-rule:nonzero;stroke:none" /></g><g
       transform="matrix(5,0,0,5,-2446.7858,-484.7177)"
       id="g28881"><path
         d="m 570.3652,111.2813 c 0,-6.23 -17.908,-11.281 -40,-11.281 -22.092,0 -40,5.051 -40,11.281 0,6.23 17.908,11.279 40,11.279 22.092,0 40,-5.049 40,-11.279"
         id="path382"
         style="opacity:0.39999402;fill:#c7a687;fill-opacity:1;fill-rule:nonzero;stroke:none" /><path
         d="m 549.709,156.0547 c 0.578,3.019 -51.095,3.221 -50.704,0 0.391,-3.219 5.998,-33.319 6.896,-37.5 0.002,-0.01 0.008,-0.018 0.01,-0.028 0.811,-3.591 8.758,-6.407 18.445,-6.407 9.638,0 17.549,2.785 18.437,6.346 0,0 0.002,0 0.002,0.002 0.547,2.356 6.511,35.476 6.914,37.587"
         id="path1982"
         style="fill:#f5d266;fill-opacity:1;fill-rule:nonzero;stroke:none" /><path
         d="m 542.793,118.4658 c 0,0 0.002,0 0.002,0.002 0.173,0.742 0.883,4.543 1.788,9.466 -4.628,-2.316 -11.963,-3.813 -20.227,-3.813 -8.291,0 -15.654,1.509 -20.279,3.838 0.854,-4.523 1.553,-8.143 1.824,-9.404 0.002,-0.01 0.008,-0.018 0.01,-0.028 0.811,-3.591 8.758,-6.407 18.445,-6.407 9.638,0 17.549,2.784 18.437,6.346"
         id="path1986"
         style="fill:#709ecb;fill-opacity:1;fill-rule:nonzero;stroke:none" /><path
         d="m 499.0049,156.0547 c 0.148,-1.233 1.066,-6.422 2.191,-12.585 4.756,-2.957 13.35,-4.933 23.161,-4.933 9.739,0 18.273,1.949 23.05,4.867 1.172,6.457 2.147,11.84 2.302,12.651 0.578,3.019 -51.095,3.221 -50.704,0"
         id="path1990"
         style="fill:#93a754;fill-opacity:1;fill-rule:nonzero;stroke:none" /><path
         d="m 545.4961,157.4141 c -1.476,-8.104 -5.997,-33.14 -6.472,-35.179 l 0,-0.002 c -0.886,-3.558 -8.8,-6.342 -18.436,-6.342 -5.998,0 -11.322,1.08 -14.706,2.753 0.006,-0.027 0.013,-0.064 0.019,-0.089 0.002,-0.01 0.008,-0.018 0.01,-0.029 0.811,-3.591 8.758,-6.406 18.445,-6.406 9.638,0 17.549,2.784 18.437,6.346 0,0 0.002,0 0.002,0.002 0.547,2.355 6.511,35.475 6.914,37.587 0.104,0.547 -1.509,1.002 -4.213,1.359"
         id="path2006"
         style="fill:#f0f4f5;fill-opacity:1;fill-rule:nonzero;stroke:none" /><path
         d="m 549.709,156.334 c 0,-5.301 -11.35,-9.598 -25.353,-9.598 -13.999,0 -25.351,4.297 -25.351,9.598 0,5.301 11.352,9.596 25.351,9.596 14.003,0 25.353,-4.295 25.353,-9.596"
         id="path2010"
         style="fill:#a2b461;fill-opacity:1;fill-rule:nonzero;stroke:none" /><path
         d="m 546.2344,156.334 c 0,-3.959 -9.795,-7.17 -21.878,-7.17 -12.08,0 -21.877,3.211 -21.877,7.17 0,3.959 9.797,7.17 21.877,7.17 12.083,0 21.878,-3.211 21.878,-7.17"
         id="path2014"
         style="fill:#879c4a;fill-opacity:1;fill-rule:nonzero;stroke:none" /><path
         d="m 524.3564,170.9785 c -7.333,0 -18.501,-13.532 -21.062,-16.561 2.561,-3.028 11.009,-5.253 21.062,-5.253 10.053,0 18.503,2.225 21.063,5.253 -2.56,3.029 -13.73,16.561 -21.063,16.561"
         id="path2018"
         style="fill:#e0ae66;fill-opacity:1;fill-rule:nonzero;stroke:none" /><path
         d="m 524.3564,170.9785 c -7.333,0 -18.501,-13.532 -21.062,-16.561 2.561,-3.028 11.009,-5.253 21.062,-5.253 10.053,0 18.503,2.225 21.063,5.253 -2.56,3.029 -13.73,16.561 -21.063,16.561"
         id="path2022"
         style="fill:#e0ae66;fill-opacity:1;fill-rule:nonzero;stroke:none" /><path
         d="m 509.9736,119.6094 c -1.07,0 -2.022,0.763 -2.223,1.854 l -4.207,22.943 c -0.225,1.23 0.587,2.408 1.817,2.633 1.224,0.226 2.406,-0.588 2.631,-1.817 l 4.209,-22.943 c 0.224,-1.231 -0.588,-2.408 -1.818,-2.633 -0.137,-0.025 -0.274,-0.037 -0.409,-0.037"
         id="path2038"
         style="opacity:0.19999701;fill:#f0e0c6;fill-opacity:1;fill-rule:nonzero;stroke:none" /><path
         d="m 531.252,166.2842 c 0,-0.392 -0.316,-0.708 -0.707,-0.708 -0.391,0 -0.707,0.316 -0.707,0.708 0,0.39 0.316,0.706 0.707,0.706 0.391,0 0.707,-0.316 0.707,-0.706"
         id="path2054"
         style="opacity:0.19999701;fill:#e0ae66;fill-opacity:1;fill-rule:nonzero;stroke:none" /><path
         d="m 530.6865,164.085 c 0,-0.184 -0.147,-0.329 -0.33,-0.329 -0.182,0 -0.33,0.145 -0.33,0.329 0,0.183 0.148,0.33 0.33,0.33 0.183,0 0.33,-0.147 0.33,-0.33"
         id="path2070"
         style="opacity:0.19999701;fill:#e0ae66;fill-opacity:1;fill-rule:nonzero;stroke:none" /><path
         d="m 528.6758,164.9951 c 0,-0.181 -0.147,-0.33 -0.329,-0.33 -0.183,0 -0.331,0.149 -0.331,0.33 0,0.184 0.148,0.331 0.331,0.331 0.182,0 0.329,-0.147 0.329,-0.331"
         id="path2086"
         style="opacity:0.19999701;fill:#e0ae66;fill-opacity:1;fill-rule:nonzero;stroke:none" /><path
         d="m 519.8154,166.3496 c 0.388,-0.048 0.663,-0.401 0.614,-0.789 -0.048,-0.388 -0.401,-0.661 -0.789,-0.614 -0.387,0.049 -0.661,0.401 -0.612,0.789 0.047,0.387 0.4,0.663 0.787,0.614"
         id="path2102"
         style="opacity:0.19999701;fill:#e0ae66;fill-opacity:1;fill-rule:nonzero;stroke:none" /><path
         d="m 521.9287,165.5166 c 0.18,-0.023 0.309,-0.188 0.285,-0.367 -0.021,-0.182 -0.186,-0.312 -0.367,-0.288 -0.182,0.024 -0.31,0.189 -0.287,0.368 0.023,0.182 0.187,0.308 0.369,0.287"
         id="path2118"
         style="opacity:0.19999701;fill:#e0ae66;fill-opacity:1;fill-rule:nonzero;stroke:none" /><path
         d="m 520.7764,163.6338 c 0.18,-0.021 0.309,-0.187 0.285,-0.368 -0.021,-0.181 -0.187,-0.309 -0.368,-0.287 -0.181,0.023 -0.31,0.189 -0.286,0.37 0.022,0.179 0.187,0.308 0.369,0.285"
         id="path2134"
         style="opacity:0.19999701;fill:#e0ae66;fill-opacity:1;fill-rule:nonzero;stroke:none" /><path
         d="m 529.2324,160.1494 c -0.147,0.36 0.028,0.773 0.389,0.921 0.361,0.147 0.773,-0.025 0.92,-0.388 0.147,-0.362 -0.026,-0.773 -0.387,-0.921 -0.36,-0.147 -0.775,0.026 -0.922,0.388"
         id="path2150"
         style="opacity:0.19999701;fill:#e0ae66;fill-opacity:1;fill-rule:nonzero;stroke:none" /><path
         d="m 528.9268,162.3984 c -0.068,0.169 0.013,0.362 0.182,0.431 0.168,0.069 0.36,-0.012 0.429,-0.181 0.069,-0.17 -0.013,-0.362 -0.18,-0.432 -0.169,-0.066 -0.361,0.013 -0.431,0.182"
         id="path2166"
         style="opacity:0.19999701;fill:#e0ae66;fill-opacity:1;fill-rule:nonzero;stroke:none" /><path
         d="m 531.1318,162.3135 c -0.067,0.169 0.015,0.36 0.182,0.429 0.168,0.069 0.36,-0.012 0.431,-0.181 0.067,-0.167 -0.014,-0.36 -0.183,-0.429 -0.169,-0.069 -0.361,0.012 -0.43,0.181"
         id="path2182"
         style="opacity:0.19999701;fill:#e0ae66;fill-opacity:1;fill-rule:nonzero;stroke:none" /><path
         d="m 512.2529,156.21 c 0.316,0.23 0.759,0.157 0.986,-0.159 0.229,-0.317 0.157,-0.76 -0.16,-0.986 -0.317,-0.228 -0.759,-0.158 -0.987,0.16 -0.228,0.316 -0.156,0.759 0.161,0.985"
         id="path2198"
         style="opacity:0.19999701;fill:#e0ae66;fill-opacity:1;fill-rule:nonzero;stroke:none" /><path
         d="m 514.3672,157.0361 c 0.149,0.108 0.354,0.073 0.46,-0.074 0.107,-0.148 0.073,-0.355 -0.074,-0.461 -0.148,-0.106 -0.354,-0.07 -0.461,0.075 -0.106,0.148 -0.072,0.355 0.075,0.46"
         id="path2214"
         style="opacity:0.19999701;fill:#e0ae66;fill-opacity:1;fill-rule:nonzero;stroke:none" /><path
         d="m 514.8018,154.874 c 0.148,0.106 0.354,0.073 0.461,-0.076 0.106,-0.149 0.074,-0.353 -0.074,-0.461 -0.149,-0.105 -0.355,-0.07 -0.461,0.075 -0.107,0.15 -0.072,0.354 0.074,0.462"
         id="path2230"
         style="opacity:0.19999701;fill:#e0ae66;fill-opacity:1;fill-rule:nonzero;stroke:none" /><path
         d="m 518.4111,158.1562 c -0.207,-0.331 -0.644,-0.431 -0.975,-0.223 -0.33,0.207 -0.43,0.644 -0.222,0.975 0.207,0.33 0.644,0.431 0.974,0.222 0.33,-0.206 0.431,-0.644 0.223,-0.974"
         id="path2246"
         style="opacity:0.19999701;fill:#e0ae66;fill-opacity:1;fill-rule:nonzero;stroke:none" /><path
         d="m 516.7646,156.5937 c -0.098,-0.153 -0.302,-0.2 -0.455,-0.104 -0.154,0.096 -0.201,0.301 -0.105,0.455 0.097,0.155 0.302,0.2 0.455,0.106 0.154,-0.099 0.201,-0.302 0.105,-0.457"
         id="path2262"
         style="opacity:0.19999701;fill:#e0ae66;fill-opacity:1;fill-rule:nonzero;stroke:none" /><path
         d="m 515.5439,158.4336 c -0.096,-0.153 -0.299,-0.201 -0.455,-0.104 -0.152,0.096 -0.2,0.3 -0.104,0.455 0.098,0.155 0.301,0.2 0.455,0.103 0.155,-0.096 0.202,-0.299 0.104,-0.454"
         id="path2278"
         style="opacity:0.19999701;fill:#e0ae66;fill-opacity:1;fill-rule:nonzero;stroke:none" /><path
         d="m 528.7773,151.7002 c -0.386,0.052 -0.656,0.409 -0.605,0.795 0.053,0.388 0.409,0.657 0.795,0.604 0.387,-0.051 0.659,-0.407 0.606,-0.795 -0.051,-0.385 -0.41,-0.657 -0.796,-0.604"
         id="path2294"
         style="opacity:0.19999701;fill:#e0ae66;fill-opacity:1;fill-rule:nonzero;stroke:none" /><path
         d="m 526.6748,152.5566 c -0.18,0.023 -0.307,0.19 -0.281,0.371 0.023,0.18 0.189,0.308 0.371,0.284 0.18,-0.026 0.306,-0.193 0.281,-0.372 -0.023,-0.181 -0.189,-0.306 -0.371,-0.283"
         id="path2310"
         style="opacity:0.19999701;fill:#e0ae66;fill-opacity:1;fill-rule:nonzero;stroke:none" /><path
         d="m 527.8486,154.4258 c -0.18,0.023 -0.307,0.19 -0.281,0.372 0.023,0.179 0.19,0.307 0.371,0.283 0.18,-0.025 0.306,-0.193 0.281,-0.372 -0.023,-0.18 -0.19,-0.306 -0.371,-0.283"
         id="path2326"
         style="opacity:0.19999701;fill:#e0ae66;fill-opacity:1;fill-rule:nonzero;stroke:none" /><path
         d="m 538.4717,154.8408 c 0.106,0.376 0.496,0.594 0.872,0.49 0.376,-0.106 0.594,-0.496 0.488,-0.872 -0.104,-0.376 -0.496,-0.596 -0.872,-0.49 -0.374,0.106 -0.592,0.498 -0.488,0.872"
         id="path2342"
         style="opacity:0.19999701;fill:#e0ae66;fill-opacity:1;fill-rule:nonzero;stroke:none" /><path
         d="m 539.6133,156.8047 c 0.049,0.175 0.23,0.277 0.405,0.228 0.175,-0.049 0.278,-0.232 0.231,-0.408 -0.052,-0.174 -0.233,-0.277 -0.409,-0.227 -0.176,0.049 -0.278,0.231 -0.227,0.407"
         id="path2358"
         style="opacity:0.19999701;fill:#e0ae66;fill-opacity:1;fill-rule:nonzero;stroke:none" /><path
         d="m 541.3018,155.3838 c 0.047,0.175 0.229,0.275 0.407,0.229 0.173,-0.052 0.276,-0.233 0.228,-0.41 -0.051,-0.175 -0.234,-0.275 -0.407,-0.226 -0.175,0.049 -0.278,0.23 -0.228,0.407"
         id="path2374"
         style="opacity:0.19999701;fill:#e0ae66;fill-opacity:1;fill-rule:nonzero;stroke:none" /><path
         d="m 524.1377,169.7529 c -5.461,0 -18.398,-13.527 -18.019,-15.213 0.382,-1.684 8.2,-3.912 15.685,-3.912 5.586,0 4.596,19.125 2.334,19.125"
         id="path2390"
         style="opacity:0.19999701;fill:#e0ae66;fill-opacity:1;fill-rule:nonzero;stroke:none" /><path
         d="m 561.5439,112.1855 c -1.731,2.16 -11.333,13.671 -17.444,13.784 -6.114,-0.113 -15.715,-11.624 -17.449,-13.784 -1.734,-2.165 9.088,-5.112 17.449,-5.134 8.358,0.022 19.179,2.969 17.444,5.134"
         id="path2394"
         style="fill:#e0ae66;fill-opacity:1;fill-rule:nonzero;stroke:none" /><path
         d="m 549.9336,122.0664 c 0,-0.324 -0.264,-0.59 -0.591,-0.59 -0.324,0 -0.588,0.266 -0.588,0.59 0,0.325 0.264,0.588 0.588,0.588 0.327,0 0.591,-0.263 0.591,-0.588"
         id="path2410"
         style="opacity:0.19999701;fill:#e0ae66;fill-opacity:1;fill-rule:nonzero;stroke:none" /><path
         d="m 549.4609,120.2344 c 0,-0.151 -0.124,-0.273 -0.273,-0.273 -0.152,0 -0.276,0.122 -0.276,0.273 0,0.151 0.124,0.275 0.276,0.275 0.149,0 0.273,-0.124 0.273,-0.275"
         id="path2426"
         style="opacity:0.19999701;fill:#e0ae66;fill-opacity:1;fill-rule:nonzero;stroke:none" /><path
         d="m 547.7861,120.9941 c 0,-0.153 -0.124,-0.275 -0.273,-0.275 -0.152,0 -0.276,0.122 -0.276,0.275 0,0.151 0.124,0.273 0.276,0.273 0.149,0 0.273,-0.122 0.273,-0.273"
         id="path2442"
         style="opacity:0.19999701;fill:#e0ae66;fill-opacity:1;fill-rule:nonzero;stroke:none" /><path
         d="m 540.4102,122.1191 c 0.32,-0.039 0.551,-0.332 0.51,-0.654 -0.04,-0.324 -0.335,-0.552 -0.657,-0.512 -0.324,0.041 -0.551,0.334 -0.51,0.657 0.039,0.322 0.334,0.551 0.657,0.509"
         id="path2458"
         style="opacity:0.19999701;fill:#e0ae66;fill-opacity:1;fill-rule:nonzero;stroke:none" /><path
         d="m 542.1689,121.4268 c 0.149,-0.018 0.256,-0.157 0.238,-0.307 -0.019,-0.149 -0.157,-0.257 -0.306,-0.238 -0.151,0.02 -0.258,0.155 -0.239,0.307 0.02,0.15 0.156,0.256 0.307,0.238"
         id="path2474"
         style="opacity:0.19999701;fill:#e0ae66;fill-opacity:1;fill-rule:nonzero;stroke:none" /><path
         d="m 541.207,119.8584 c 0.151,-0.02 0.258,-0.155 0.24,-0.307 -0.019,-0.149 -0.158,-0.255 -0.307,-0.238 -0.152,0.021 -0.258,0.155 -0.238,0.308 0.018,0.151 0.156,0.258 0.305,0.237"
         id="path2490"
         style="opacity:0.19999701;fill:#e0ae66;fill-opacity:1;fill-rule:nonzero;stroke:none" /><path
         d="m 548.251,116.957 c -0.124,0.301 0.021,0.645 0.322,0.767 0.302,0.124 0.644,-0.022 0.768,-0.323 0.122,-0.3 -0.022,-0.645 -0.324,-0.767 -0.3,-0.122 -0.644,0.021 -0.766,0.323"
         id="path2506"
         style="opacity:0.19999701;fill:#e0ae66;fill-opacity:1;fill-rule:nonzero;stroke:none" /><path
         d="m 547.9951,118.8301 c -0.057,0.142 0.012,0.301 0.151,0.357 0.14,0.058 0.301,-0.009 0.359,-0.149 0.056,-0.142 -0.012,-0.301 -0.152,-0.357 -0.139,-0.058 -0.299,0.009 -0.358,0.149"
         id="path2522"
         style="opacity:0.19999701;fill:#e0ae66;fill-opacity:1;fill-rule:nonzero;stroke:none" /><path
         d="m 549.833,118.7588 c -0.058,0.142 0.012,0.301 0.149,0.358 0.14,0.057 0.303,-0.009 0.359,-0.149 0.058,-0.142 -0.01,-0.302 -0.15,-0.358 -0.142,-0.057 -0.301,0.009 -0.358,0.149"
         id="path2538"
         style="opacity:0.19999701;fill:#e0ae66;fill-opacity:1;fill-rule:nonzero;stroke:none" /><path
         d="m 534.1094,113.6787 c 0.266,0.19 0.634,0.13 0.823,-0.134 0.189,-0.263 0.132,-0.632 -0.132,-0.82 -0.265,-0.192 -0.633,-0.132 -0.823,0.134 -0.19,0.261 -0.132,0.631 0.132,0.82"
         id="path2554"
         style="opacity:0.19999701;fill:#e0ae66;fill-opacity:1;fill-rule:nonzero;stroke:none" /><path
         d="m 535.8711,114.3652 c 0.126,0.091 0.295,0.062 0.386,-0.062 0.088,-0.123 0.058,-0.294 -0.066,-0.382 -0.12,-0.089 -0.293,-0.062 -0.38,0.062 -0.089,0.122 -0.062,0.293 0.06,0.382"
         id="path2570"
         style="opacity:0.19999701;fill:#e0ae66;fill-opacity:1;fill-rule:nonzero;stroke:none" /><path
         d="m 536.2344,112.5645 c 0.124,0.089 0.296,0.062 0.384,-0.062 0.087,-0.125 0.061,-0.295 -0.063,-0.384 -0.122,-0.089 -0.295,-0.061 -0.382,0.063 -0.09,0.122 -0.062,0.295 0.061,0.383"
         id="path2586"
         style="opacity:0.19999701;fill:#e0ae66;fill-opacity:1;fill-rule:nonzero;stroke:none" /><path
         d="m 539.2393,115.2979 c -0.173,-0.275 -0.537,-0.358 -0.811,-0.187 -0.275,0.175 -0.358,0.538 -0.186,0.813 0.173,0.275 0.537,0.357 0.812,0.185 0.274,-0.171 0.358,-0.536 0.185,-0.811"
         id="path2602"
         style="opacity:0.19999701;fill:#e0ae66;fill-opacity:1;fill-rule:nonzero;stroke:none" /><path
         d="m 537.8682,113.9971 c -0.081,-0.128 -0.25,-0.167 -0.38,-0.086 -0.128,0.08 -0.167,0.25 -0.085,0.378 0.079,0.129 0.248,0.167 0.378,0.086 0.128,-0.08 0.167,-0.25 0.087,-0.378"
         id="path2618"
         style="opacity:0.19999701;fill:#e0ae66;fill-opacity:1;fill-rule:nonzero;stroke:none" /><path
         d="m 536.8525,115.5283 c -0.081,-0.128 -0.25,-0.165 -0.38,-0.087 -0.126,0.081 -0.167,0.252 -0.084,0.38 0.078,0.128 0.249,0.167 0.377,0.087 0.128,-0.081 0.166,-0.25 0.087,-0.38"
         id="path2634"
         style="opacity:0.19999701;fill:#e0ae66;fill-opacity:1;fill-rule:nonzero;stroke:none" /><path
         d="m 547.8711,109.9229 c -0.32,0.043 -0.547,0.34 -0.504,0.661 0.046,0.322 0.341,0.547 0.663,0.503 0.323,-0.043 0.549,-0.338 0.504,-0.661 -0.043,-0.322 -0.341,-0.547 -0.663,-0.503"
         id="path2650"
         style="opacity:0.19999701;fill:#e0ae66;fill-opacity:1;fill-rule:nonzero;stroke:none" /><path
         d="m 546.1201,110.6348 c -0.149,0.02 -0.256,0.159 -0.234,0.309 0.019,0.149 0.159,0.255 0.308,0.236 0.153,-0.02 0.256,-0.159 0.235,-0.309 -0.02,-0.149 -0.158,-0.256 -0.309,-0.236"
         id="path2666"
         style="opacity:0.19999701;fill:#e0ae66;fill-opacity:1;fill-rule:nonzero;stroke:none" /><path
         d="m 547.0977,112.1934 c -0.151,0.018 -0.256,0.157 -0.234,0.309 0.02,0.147 0.16,0.253 0.309,0.234 0.15,-0.02 0.256,-0.159 0.237,-0.31 -0.023,-0.149 -0.163,-0.254 -0.312,-0.233"
         id="path2682"
         style="opacity:0.19999701;fill:#e0ae66;fill-opacity:1;fill-rule:nonzero;stroke:none" /><path
         d="m 555.9443,112.5371 c 0.087,0.313 0.413,0.496 0.724,0.407 0.315,-0.088 0.496,-0.413 0.407,-0.725 -0.086,-0.313 -0.411,-0.496 -0.724,-0.408 -0.312,0.089 -0.494,0.414 -0.407,0.726"
         id="path2698"
         style="opacity:0.19999701;fill:#e0ae66;fill-opacity:1;fill-rule:nonzero;stroke:none" /><path
         d="m 556.8926,114.1729 c 0.041,0.146 0.192,0.229 0.341,0.19 0.145,-0.041 0.229,-0.194 0.19,-0.339 -0.043,-0.147 -0.194,-0.233 -0.341,-0.19 -0.145,0.041 -0.229,0.193 -0.19,0.339"
         id="path2714"
         style="opacity:0.19999701;fill:#e0ae66;fill-opacity:1;fill-rule:nonzero;stroke:none" /><path
         d="m 558.2998,112.9883 c 0.041,0.147 0.192,0.229 0.338,0.19 0.145,-0.041 0.23,-0.192 0.191,-0.339 -0.042,-0.147 -0.193,-0.231 -0.339,-0.19 -0.145,0.041 -0.232,0.193 -0.19,0.339"
         id="path2730"
         style="opacity:0.19999701;fill:#e0ae66;fill-opacity:1;fill-rule:nonzero;stroke:none" /><path
         d="m 544.0088,124.9551 c -4.549,0 -16.08,-12.024 -15.764,-13.427 0.318,-1.403 7.584,-3.259 13.82,-3.259 4.651,0 3.827,16.686 1.944,16.686"
         id="path2746"
         style="opacity:0.19999701;fill:#e0ae66;fill-opacity:1;fill-rule:nonzero;stroke:none" /></g><g
       transform="translate(364.71173,26.563649)"
       id="g28938"><path
         d="m 700.3652,111.2813 c 0,-6.23 -17.908,-11.281 -40,-11.281 -22.092,0 -40,5.051 -40,11.281 0,6.23 17.908,11.279 40,11.279 22.092,0 40,-5.049 40,-11.279"
         id="path446"
         style="opacity:0.39999402;fill:#c7a687;fill-opacity:1;fill-rule:nonzero;stroke:none" /><path
         d="m 691.6738,149.6123 c 2.457,4.515 -2.749,10.405 -6.536,14.192 -3.785,3.787 -9.68,8.995 -14.193,6.537 -3.932,-2.145 -16.024,-10.534 -19.77,-16.858 -3.079,-5.202 7.66,-15.983 7.66,-15.983 0,0 10.779,-10.738 15.982,-7.657 6.326,3.745 14.712,15.836 16.857,19.769"
         id="path2814"
         style="fill:#709ecb;fill-opacity:1;fill-rule:nonzero;stroke:none" /><path
         d="m 691.6738,149.6123 c 0.714,1.311 0.767,2.738 0.411,4.196 -2.09,-3.578 -12.074,-16.381 -17.091,-19.35 -4.227,-2.504 -12.981,6.219 -12.981,6.219 0,0 -8.726,8.756 -6.222,12.982 2.97,5.018 15.773,15.003 19.351,17.093 -1.458,0.355 -2.886,0.3 -4.197,-0.411 -3.932,-2.145 -16.024,-10.534 -19.77,-16.858 -3.079,-5.202 7.66,-15.983 7.66,-15.983 0,0 10.779,-10.738 15.982,-7.657 6.326,3.745 14.712,15.836 16.857,19.769"
         id="path2830"
         style="opacity:0.30000299;fill:#709ecb;fill-opacity:1;fill-rule:nonzero;stroke:none" /><path
         d="m 658.835,137.5 c 0,0 0.861,-0.856 2.213,-2.019 0.82,0.839 1.507,1.562 1.983,2.088 3.013,3.316 3.958,7.863 2.847,8.973 -1.111,1.111 -5.657,0.165 -8.974,-2.844 -0.483,-0.436 -1.129,-1.051 -1.876,-1.778 1.949,-2.553 3.807,-4.42 3.807,-4.42"
         id="path2846"
         style="opacity:0.5;fill:#709ecb;fill-opacity:1;fill-rule:nonzero;stroke:none" /><path
         d="m 664.0312,136.5693 c 3.011,3.315 3.958,7.864 2.847,8.976 -1.112,1.109 -5.66,0.164 -8.976,-2.847 -3.316,-3.009 -14.359,-14.359 -14.359,-14.359 l 3.065,-3.066 3.066,-3.063 c 0,0 11.348,11.041 14.357,14.359"
         id="path2850"
         style="fill:#f5d266;fill-opacity:1;fill-rule:nonzero;stroke:none" /><path
         d="m 664.0312,136.5693 c 3.011,3.315 3.958,7.864 2.847,8.976 -0.155,0.152 -0.384,0.263 -0.659,0.337 0.46,-1.701 -0.595,-5.461 -3.188,-8.313 -0.477,-0.526 -1.163,-1.249 -1.983,-2.088 0.335,-0.285 0.7,-0.593 1.089,-0.905 0.779,0.798 1.434,1.486 1.894,1.993"
         id="path2866"
         style="opacity:0.5;fill:#f5d266;fill-opacity:1;fill-rule:nonzero;stroke:none" /><path
         d="m 643.1436,112.2314 c -0.649,-0.13 -2.939,0.187 -6.166,3.413 -3.226,3.227 -3.543,5.515 -3.411,6.166 0.129,0.65 1.809,2.281 3.528,2.905 1.718,0.624 5.427,0.887 7.632,-1.32 2.207,-2.207 1.946,-5.916 1.32,-7.634 -0.624,-1.718 -2.253,-3.399 -2.903,-3.53 m 6.867,2.126 c 0.999,2.747 0.047,10.231 -2.021,12.301 -2.07,2.07 -9.55,3.016 -12.299,2.019 -2.746,-1 -7.033,-5.202 -7.24,-6.243 -0.207,-1.042 0.602,-4.807 5.555,-9.762 4.953,-4.953 8.72,-5.764 9.76,-5.555 1.041,0.207 5.245,4.494 6.245,7.24"
         id="path2870"
         style="fill:#e96565;fill-opacity:1;fill-rule:nonzero;stroke:none" /></g></g></svg>