<svg viewBox="0 0 48 48" xmlns="http://www.w3.org/2000/svg" xmlns:xlink="http://www.w3.org/1999/xlink" width="48" height="48">
<defs>



 <path fill="#5d6b82" id="i-456" d="M35.311,25.38C37.63,23.88,39,22.03,39,20c0-2.74-2.471-5.16-6.439-6.79C37.02,12.05,40,9.73,40,7c0-3.93-6.15-7-14-7 c-7.85,0-14,3.07-14,7c0,1.65,1.1,3.14,2.94,4.33C6.82,12.36,1,15.79,1,20c0,2.87,2.69,5.38,6.97,7.01C3.06,29.2,0,32.38,0,36 c0,6.73,10.54,12,24,12s24-5.27,24-12C48,31.33,42.92,27.37,35.311,25.38z M14,7c0-2.37,4.93-5,12-5c7.07,0,12,2.63,12,5 c0,2.36-4.93,5-12,5C18.93,12,14,9.36,14,7z M3,20c0-3.25,6.3-6.7,15.81-6.97C20.9,13.64,23.35,14,26,14c0.77,0,1.52-0.04,2.25-0.1 C33.68,15.19,37,17.65,37,20c0,3.38-6.83,7-17,7S3,23.38,3,20z M24,46C12.07,46,2,41.42,2,36c0-3.25,3.62-6.18,9.08-8.02 C13.73,28.63,16.75,29,20,29c4.84,0,9.189-0.82,12.51-2.19C40.35,28.36,46,31.94,46,36C46,41.42,35.92,46,24,46z"/> 
</defs>

<use x="0" y="0" xlink:href="#i-456"/>

</svg>